<svg width="47" height="53" viewBox="0 0 47 53" fill="none" xmlns="http://www.w3.org/2000/svg">
<path d="M23.5 53C26.7313 53 29.375 50.5538 29.375 47.5641H17.625C17.625 50.5538 20.2687 53 23.5 53ZM41.125 36.6923V23.1026C41.125 14.7585 36.3369 7.77333 27.9062 5.92513V4.07692C27.9062 1.82103 25.9381 0 23.5 0C21.0619 0 19.0938 1.82103 19.0938 4.07692V5.92513C10.6925 7.77333 5.875 14.7313 5.875 23.1026V36.6923L0 42.1282V44.8462H47V42.1282L41.125 36.6923ZM35.25 39.4103H11.75V23.1026C11.75 16.3621 16.1856 10.8718 23.5 10.8718C30.8144 10.8718 35.25 16.3621 35.25 23.1026V39.4103Z" fill="black"/>
</svg>
