<svg width="120" height="41" viewBox="0 0 120 41" fill="none" xmlns="http://www.w3.org/2000/svg">
<path d="M34.5377 2.75407C42.0377 2.75407 56.0377 6.56315 56.0377 6.56315C56.0377 19.6047 55.0377 26.1614 40.5377 36.0834C40.5377 36.0834 22.5377 41.345 13.0377 36.0834C3.53766 30.8218 2.03766 8.17746 2.03766 8.17746C2.03766 8.17746 4.63754 3.933 9.03766 2.75406C14.0143 1.42067 34.5377 2.75407 34.5377 2.75407Z" fill="#2C2C2C"/>
<path d="M85.0377 2.59264C77.6071 2.59264 63.7367 6.40172 63.7367 6.40172C63.7367 19.4432 64.8016 26 78.3016 35.922C78.3016 35.922 96.9266 41.1836 106.339 35.922C115.751 30.6603 117.237 8.01603 117.237 8.01603C117.237 8.01603 114.661 3.77157 110.302 2.59263C105.371 1.25924 85.0377 2.59264 85.0377 2.59264Z" fill="#2C2C2C"/>
<path d="M34.5377 2.75407C42.0377 2.75407 56.0377 6.56315 56.0377 6.56315C56.0377 19.6047 55.0377 26.1614 40.5377 36.0834C40.5377 36.0834 22.5377 41.345 13.0377 36.0834C3.53766 30.8218 2.03766 8.17746 2.03766 8.17746C2.03766 8.17746 4.63754 3.933 9.03766 2.75406C14.0143 1.42067 34.5377 2.75407 34.5377 2.75407Z" stroke="black" stroke-width="4"/>
<path d="M85.0377 2.59264C77.6071 2.59264 63.7367 6.40172 63.7367 6.40172C63.7367 19.4432 64.8016 26 78.3016 35.922C78.3016 35.922 96.9266 41.1836 106.339 35.922C115.751 30.6603 117.237 8.01603 117.237 8.01603C117.237 8.01603 114.661 3.77157 110.302 2.59263C105.371 1.25924 85.0377 2.59264 85.0377 2.59264Z" stroke="black" stroke-width="4"/>
<path d="M56.0377 6.66144H61.0377V11.6614H56.0377V6.66144Z" fill="black" stroke="black" stroke-width="4"/>
</svg>
